<svg xmlns="http://www.w3.org/2000/svg" viewBox="0 0 256 256">
  <path fill="#00D8FF" d="M251.172 116.594L139.4 25.292a3.988 3.988 0 0 0-6.848 2.828v36.574L48.64 116.594a3.988 3.988 0 0 0 0 6.848l111.912 91.302a3.988 3.988 0 0 0 6.848-2.828v-36.574l84.012-52.5a3.988 3.988 0 0 0 0-6.848zM139.4 214.432L28.64 123.13l84.012-52.5v36.574a3.988 3.988 0 0 0 6.848 2.828L139.4 85.574v128.858z"/>
  <path fill="#00D8FF" d="M48.64 116.594L139.4 25.292a3.988 3.988 0 0 1 6.848 2.828v36.574l84.012-52.5a3.988 3.988 0 0 1 0 6.848l-84.012 52.5v36.574a3.988 3.988 0 0 1-6.848 2.828L48.64 123.442a3.988 3.988 0 0 1 0-6.848z"/>
</svg> 