<svg xmlns="http://www.w3.org/2000/svg" viewBox="0 0 256 228">
  <path d="M210.483 73.824a171.49 171.49 0 0 0-8.24-2.597c.465-1.9.893-3.777 1.273-5.621 6.238-30.281 2.16-54.676-11.769-62.708-13.355-7.7-35.196.329-57.254 19.526a171.23 171.23 0 0 0-6.375 5.848 155.866 155.866 0 0 0-4.241-3.917C100.759 3.829 77.587-4.822 64.231 2.886 50.28 10.882 46.379 35.06 52.4 65.608a170.974 170.974 0 0 0 1.892 8.48c-3.28.932-6.445 1.924-9.474 2.98C17.309 83.498 0 98.307 0 113.668c0 15.865 18.582 32.422 46.812 40.043a145.52 145.52 0 0 0 6.921 1.696 167.467 167.467 0 0 0-2.01 9.138c-6.021 30.548-2.12 54.726 11.831 62.722 13.356 7.708 36.528-.944 58.586-20.141a145.567 145.567 0 0 0 5.342-4.923 168.064 168.064 0 0 0 6.92 6.314c21.758 18.897 44.93 27.549 58.286 19.801 13.949-7.996 17.85-32.174 11.829-62.722a167.31 167.31 0 0 0-1.892-8.48c2.634-.741 5.18-1.518 7.629-2.336C229.099 146.568 256 130.795 256 113.668c0-15.361-17.309-30.17-45.517-39.844zm-6.365 70.984c-2.048.614-4.158 1.205-6.323 1.77a183.62 183.62 0 0 1-2.624.675c-7.032 1.736-14.44 3.313-22.18 4.712-12.823 2.301-26.18 3.469-39.996 3.469-13.816 0-27.173-1.168-39.996-3.469-7.74-1.399-15.148-2.976-22.18-4.712a183.62 183.62 0 0 1-2.624-.675 145.52 145.52 0 0 1-6.323-1.77c-24.472-7.348-40.324-18.465-40.324-30.14 0-11.676 15.852-22.793 40.324-30.14a145.52 145.52 0 0 1 6.323-1.77 183.62 183.62 0 0 1 2.624-.675c7.032-1.736 14.44-3.313 22.18-4.712 12.823-2.301 26.18-3.469 39.996-3.469 13.816 0 27.173 1.168 39.996 3.469 7.74 1.399 15.148 2.976 22.18 4.712.88.217 1.744.442 2.624.675a145.52 145.52 0 0 1 6.323 1.77c24.472 7.348 40.324 18.465 40.324 30.14 0 11.675-15.852 22.792-40.324 30.14z" fill="#00D8FF"/>
  <ellipse cx="128" cy="113.668" rx="19.477" ry="37.843" fill="#00D8FF"/>
</svg> 