<svg xmlns="http://www.w3.org/2000/svg" viewBox="0 0 256 256">
  <defs>
    <linearGradient id="a" x1="45.974%" x2="54.877%" y1="-2.006%" y2="100%">
      <stop offset="0%" stop-color="#F6D6A2"/>
      <stop offset="100%" stop-color="#E8B179"/>
    </linearGradient>
    <linearGradient id="b" x1="19.496%" x2="77.479%" y1="71.822%" y2="16.954%">
      <stop offset="0%" stop-color="#F6D6A2"/>
      <stop offset="100%" stop-color="#E8B179"/>
    </linearGradient>
  </defs>
  <path fill="url(#a)" d="M181.534 254.252c-5.56 1.959-7.242 2.901-8.609 2.901-3.859 0-7.242-2.476-8.609-6.386l-37.09-99.506H89.44c-4.477 0-8.609-2.901-8.609-7.242 0-4.477 4.132-7.242 8.609-7.242h45.494l32.403-87.741c1.367-3.91 4.75-6.386 8.609-6.386 1.367 0 3.049.942 8.609 2.901L181.534 254.252z"/>
  <path fill="url(#b)" d="M85.082 252.924c-5.56-1.959-7.242-2.901-8.609-2.901-3.859 0-7.242 2.476-8.609 6.386L30.775 357.915c-1.367 3.91 1.367 6.386 4.75 6.386 1.367 0 3.049-.942 8.609-2.901L85.082 252.924z"/>
</svg> 